<?xml version="1.0" encoding="UTF-8"?>
<svg id="fl-layout-svg-screenshot-container" xmlns="http://www.w3.org/2000/svg" xmlns:xlink="http://www.w3.org/1999/xlink" version="1.1" viewBox="0 0 745.7 424">
  <defs>
    <style>
      .cls-1, .cls-2, .cls-3, .cls-4, .cls-5, .cls-6 {
        fill: none;
      }

      .cls-1, .cls-6 {
        stroke: #eee;
        stroke-width: 1.5px;
      }

      .cls-2 {
        stroke: #c30101;
      }

      .cls-2, .cls-7, .cls-8, .cls-4, .cls-9, .cls-10, .cls-11, .cls-5, .cls-12, .cls-13, .cls-14, .cls-15 {
        isolation: isolate;
      }

      .cls-2, .cls-7, .cls-8, .cls-4, .cls-9, .cls-5, .cls-13 {
        font-family: Arial-BoldMT, Arial;
        font-weight: 700;
      }

      .cls-2, .cls-7, .cls-4, .cls-9, .cls-11, .cls-5, .cls-12, .cls-15 {
        font-size: 14px;
      }

      .cls-2, .cls-4, .cls-5 {
        stroke-width: 4.2px;
      }

      .cls-7 {
        fill: #fff;
      }

      .cls-8, .cls-10 {
        font-size: 22.4px;
      }

      .cls-8, .cls-10, .cls-15 {
        fill: #333;
      }

      .cls-16 {
        clip-path: url(#clippath);
      }

      .cls-3, .cls-17, .cls-18, .cls-19, .cls-20 {
        stroke-width: 0px;
      }

      .cls-4 {
        stroke: #04027e;
      }

      .cls-9, .cls-12, .cls-21, .cls-20, .cls-13 {
        fill: #000;
      }

      .cls-10, .cls-11, .cls-12, .cls-15 {
        font-family: ArialMT, Arial;
      }

      .cls-11 {
        fill: #4a4a4a;
      }

      .cls-5 {
        stroke: #6f0000;
      }

      .cls-17 {
        fill: #c30101;
      }

      .cls-22 {
        clip-path: url(#clippath-1);
      }

      .cls-23 {
        clip-path: url(#clippath-4);
      }

      .cls-24 {
        clip-path: url(#clippath-3);
      }

      .cls-25 {
        clip-path: url(#clippath-2);
      }

      .cls-26 {
        clip-path: url(#clippath-6);
      }

      .cls-27 {
        clip-path: url(#clippath-5);
      }

      .cls-18 {
        fill: #04027e;
      }

      .cls-19 {
        fill: #6f0000;
      }

      .cls-21 {
        font-family: MyriadPro-Regular, 'Myriad Pro';
        font-size: 12px;
      }

      .cls-20 {
        fill-opacity: 0;
      }

      .cls-6 {
        stroke-linecap: square;
      }

      .cls-13 {
        font-size: 12.6px;
      }

      .cls-28 {
        opacity: 0;
      }
    </style>
    <clipPath id="clippath">
      <rect class="cls-3" x="14.7" y="142" width="760.8" height="224.1"/>
    </clipPath>
    <clipPath id="clippath-1">
      <rect class="cls-3" x="16.2" y="143.5" width="757.8" height="221.1"/>
    </clipPath>
    <clipPath id="clippath-2">
      <rect class="cls-3" x="16.2" y="143.5" width="757.8" height="221.1"/>
    </clipPath>
    <clipPath id="clippath-3">
      <rect class="cls-3" x="16.2" y="143.5" width="757.8" height="221.1"/>
    </clipPath>
    <clipPath id="clippath-4">
      <polyline class="cls-3" points="16.2 364.6 16.2 143.5 774 143.5 774 364.6"/>
    </clipPath>
    <clipPath id="clippath-5">
      <polyline class="cls-3" points="16.2 364.6 16.2 143.5 774 143.5"/>
    </clipPath>
    <clipPath id="clippath-6">
      <rect class="cls-3" x="16.2" y="143.5" width="720.5" height="221.1"/>
    </clipPath>
  </defs>
  <g>
    <path class="cls-3" d="M16.2,140v224.6h729.7v-2.6c0-3.4,2.5-4.9,5.1-4.8.9-5.5,9.9-5.1,9.9,1v6.4h1.7c-.4-12-.8-24-.8-36.1s.4-2.2,1.1-3c-4.2-8.9-7.3-18.4-8.5-28.2-1.9-15.6,1.4-31.4,4.9-46.5,3.7-16.1,7.4-31.6,7.8-48.3.3-17.1-.6-34.2-.6-51.3s10-6.4,10,0c0,18.3,1.1,36.7.5,55-.5,15.3-3.9,29.8-7.4,44.6-.3,1.3-.6,2.5-.9,3.8,2.3-3.7,9.3-2.8,9.3,2.6,0,28.2,2.5,56.2,5.9,84,.6.8,1.2,1.6,1.8,2.4v-203.8H16.2v.2h0Z"/>
    <path class="cls-3" d="M16.2,140v224.6h729.7v-2.6c0-3.4,2.5-4.9,5.1-4.8.9-5.5,9.9-5.1,9.9,1v6.4h1.7c-.4-12-.8-24-.8-36.1s.4-2.2,1.1-3c-4.2-8.9-7.3-18.4-8.5-28.2-1.9-15.6,1.4-31.4,4.9-46.5,3.7-16.1,7.4-31.6,7.8-48.3.3-17.1-.6-34.2-.6-51.3s10-6.4,10,0c0,18.3,1.1,36.7.5,55-.5,15.3-3.9,29.8-7.4,44.6-.3,1.3-.6,2.5-.9,3.8,2.3-3.7,9.3-2.8,9.3,2.6,0,28.2,2.5,56.2,5.9,84,.6.8,1.2,1.6,1.8,2.4v-203.8H16.2v.2h0Z"/>
    <g>
      <g>
        <g>
          <path class="cls-3" d="M16.2,143.5v221.1h729.7v-2.6c0-3.4,2.5-4.9,5.1-4.8.9-5.5,9.9-5.1,9.9,1v6.4h1.7c-.4-12-.8-24-.8-36.1s.4-2.2,1.1-3c-4.2-8.9-7.3-18.4-8.5-28.2-1.9-15.6,1.4-31.4,4.9-46.5,3.7-16.1,7.4-31.6,7.8-48.3.3-17.1-.6-34.2-.6-51.3s4.8-5.8,7.8-4.1v-3.8H16.2v.2h0Z"/>
          <path class="cls-20" d="M8,136.7l8.2,6.8v221.1h729.7v-2.6c0-3.4,2.5-4.9,5.1-4.8.9-5.5,9.9-5.1,9.9,1v6.4h1.7c-.4-12-.8-24-.8-36.1s.4-2.2,1.1-3c-4.2-8.9-7.3-18.4-8.5-28.2-1.9-15.6,1.4-31.4,4.9-46.5,3.7-16.1,7.4-31.6,7.8-48.3.3-17.1-.6-34.2-.6-51.3s4.8-5.8,7.8-4.1l-8.2-10.4"/>
        </g>
        <g class="cls-16">
          <g>
            <line class="cls-1" x1="16.2" y1="364.6" x2="16.2" y2="143.5"/>
            <line class="cls-1" x1="70.4" y1="364.6" x2="70.4" y2="143.5"/>
            <line class="cls-1" x1="124.5" y1="364.6" x2="124.5" y2="143.5"/>
            <line class="cls-1" x1="178.6" y1="364.6" x2="178.6" y2="143.5"/>
            <line class="cls-1" x1="232.7" y1="364.6" x2="232.7" y2="143.5"/>
            <line class="cls-1" x1="286.9" y1="364.6" x2="286.9" y2="143.5"/>
            <line class="cls-1" x1="341" y1="364.6" x2="341" y2="143.5"/>
            <line class="cls-1" x1="395.1" y1="364.6" x2="395.1" y2="143.5"/>
            <line class="cls-1" x1="449.3" y1="364.6" x2="449.3" y2="143.5"/>
            <line class="cls-1" x1="503.4" y1="364.6" x2="503.4" y2="143.5"/>
            <line class="cls-1" x1="557.5" y1="364.6" x2="557.5" y2="143.5"/>
            <line class="cls-1" x1="611.7" y1="364.6" x2="611.7" y2="143.5"/>
            <line class="cls-1" x1="665.8" y1="364.6" x2="665.8" y2="143.5"/>
            <line class="cls-1" x1="719.9" y1="364.6" x2="719.9" y2="143.5"/>
          </g>
        </g>
        <g>
          <path class="cls-6" d="M16.2,364.6c243.4.2,485.4.2,728.7,0"/>
          <g>
            <g>
              <line class="cls-1" x1="16.2" y1="364.6" x2="16.2" y2="371.6"/>
              <g class="cls-14">
                <g class="cls-14">
                  <g class="cls-14">
                    <text class="cls-11" transform="translate(17.3 387.1) rotate(-45)"><tspan x="0" y="0">0</tspan></text>
                  </g>
                </g>
              </g>
            </g>
            <g>
              <line class="cls-1" x1="665.8" y1="364.6" x2="665.8" y2="371.6"/>
              <g class="cls-14">
                <g class="cls-14">
                  <g class="cls-14">
                    <text class="cls-11" transform="translate(650.3 403.7) rotate(-45)"><tspan x="0" y="0">6000</tspan></text>
                  </g>
                </g>
              </g>
            </g>
            <g>
              <line class="cls-1" x1="557.5" y1="364.6" x2="557.5" y2="371.6"/>
              <g class="cls-14">
                <g class="cls-14">
                  <g class="cls-14">
                    <text class="cls-11" transform="translate(542 403.7) rotate(-45)"><tspan x="0" y="0">5000</tspan></text>
                  </g>
                </g>
              </g>
            </g>
            <g>
              <line class="cls-1" x1="449.3" y1="364.6" x2="449.3" y2="371.6"/>
              <g class="cls-14">
                <g class="cls-14">
                  <g class="cls-14">
                    <text class="cls-11" transform="translate(433.8 403.7) rotate(-45)"><tspan x="0" y="0">4000</tspan></text>
                  </g>
                </g>
              </g>
            </g>
            <g>
              <line class="cls-1" x1="341" y1="364.6" x2="341" y2="371.6"/>
              <g class="cls-14">
                <g class="cls-14">
                  <g class="cls-14">
                    <text class="cls-11" transform="translate(325.5 403.7) rotate(-45)"><tspan x="0" y="0">3000</tspan></text>
                  </g>
                </g>
              </g>
            </g>
            <g>
              <line class="cls-1" x1="232.7" y1="364.6" x2="232.7" y2="371.6"/>
              <g class="cls-14">
                <g class="cls-14">
                  <g class="cls-14">
                    <text class="cls-11" transform="translate(217.3 403.7) rotate(-45)"><tspan x="0" y="0">2000</tspan></text>
                  </g>
                </g>
              </g>
            </g>
            <g>
              <line class="cls-1" x1="124.5" y1="364.6" x2="124.5" y2="371.6"/>
              <g class="cls-14">
                <g class="cls-14">
                  <g class="cls-14">
                    <text class="cls-11" transform="translate(109 403.7) rotate(-45)"><tspan x="0" y="0">1000</tspan></text>
                  </g>
                </g>
              </g>
            </g>
            <g>
              <line class="cls-1" x1="70.4" y1="364.6" x2="70.4" y2="371.6"/>
              <g class="cls-14">
                <g class="cls-14">
                  <g class="cls-14">
                    <text class="cls-11" transform="translate(60.4 398.2) rotate(-45)"><tspan x="0" y="0">500</tspan></text>
                  </g>
                </g>
              </g>
            </g>
            <g>
              <line class="cls-1" x1="719.9" y1="364.6" x2="719.9" y2="371.6"/>
              <g class="cls-14">
                <g class="cls-14">
                  <g class="cls-14">
                    <text class="cls-11" transform="translate(704.4 403.7) rotate(-45)"><tspan x="0" y="0">6500</tspan></text>
                  </g>
                </g>
              </g>
            </g>
            <g>
              <line class="cls-1" x1="611.7" y1="364.6" x2="611.7" y2="371.6"/>
              <g class="cls-14">
                <g class="cls-14">
                  <g class="cls-14">
                    <text class="cls-11" transform="translate(596.2 403.7) rotate(-45)"><tspan x="0" y="0">5500</tspan></text>
                  </g>
                </g>
              </g>
            </g>
            <g>
              <line class="cls-1" x1="503.4" y1="364.6" x2="503.4" y2="371.6"/>
              <g class="cls-14">
                <g class="cls-14">
                  <g class="cls-14">
                    <text class="cls-11" transform="translate(487.9 403.7) rotate(-45)"><tspan x="0" y="0">4500</tspan></text>
                  </g>
                </g>
              </g>
            </g>
            <g>
              <line class="cls-1" x1="395.1" y1="364.6" x2="395.1" y2="371.6"/>
              <g class="cls-14">
                <g class="cls-14">
                  <g class="cls-14">
                    <text class="cls-11" transform="translate(379.6 403.7) rotate(-45)"><tspan x="0" y="0">3500</tspan></text>
                  </g>
                </g>
              </g>
            </g>
            <g>
              <line class="cls-1" x1="286.9" y1="364.6" x2="286.9" y2="371.6"/>
              <g class="cls-14">
                <g class="cls-14">
                  <g class="cls-14">
                    <text class="cls-11" transform="translate(271.4 403.7) rotate(-45)"><tspan x="0" y="0">2500</tspan></text>
                  </g>
                </g>
              </g>
            </g>
            <g>
              <line class="cls-1" x1="178.6" y1="364.6" x2="178.6" y2="371.6"/>
              <g class="cls-14">
                <g class="cls-14">
                  <g class="cls-14">
                    <text class="cls-11" transform="translate(163.1 403.7) rotate(-45)"><tspan x="0" y="0">1500</tspan></text>
                  </g>
                </g>
              </g>
            </g>
          </g>
        </g>
      </g>
      <g class="cls-22">
        <g class="cls-14">
          <g class="cls-14">
            <text class="cls-13" transform="translate(16.2 276.8)"><tspan x="0" y="0">MARJORIE VELAZQUEZ</tspan></text>
          </g>
        </g>
      </g>
      <g class="cls-25">
        <g class="cls-14">
          <g class="cls-14">
            <text class="cls-13" transform="translate(16.2 166.3)"><tspan x="0" y="0">KRISTY MARMORATO</tspan></text>
          </g>
        </g>
      </g>
    </g>
  </g>
  <g id="data-points">
    <g class="cls-24">
      <path id="point-0-0" class="cls-18" d="M16.2,280.2h660.7v73.3H16.2v-73.3Z"/>
    </g>
    <g class="cls-23">
      <path id="point-1-1" class="cls-19" d="M16.2,169.7h624.5v73.3H16.2v-73.3Z"/>
    </g>
    <path id="point-2-1" class="cls-17" d="M642.1,169.7h84.9v73.3h-84.9v-73.3Z"/>
  </g>
  <g id="data-point-labels">
    <g class="cls-27">
      <g>
        <g pointer-events="none">
          <g class="cls-14">
            <g class="cls-14">
              <g class="cls-14">
                <text class="cls-9" transform="translate(640.3 321.5)"><tspan x="0" y="0">6103</tspan></text>
              </g>
            </g>
            <g class="cls-14">
              <g class="cls-14">
                <text class="cls-4" transform="translate(640.3 321.5)"><tspan x="0" y="0">6103</tspan></text>
              </g>
            </g>
          </g>
          <g class="cls-14">
            <g class="cls-14">
              <g class="cls-14">
                <text class="cls-7" transform="translate(640.3 321.5)"><tspan x="0" y="0">6103</tspan></text>
              </g>
            </g>
          </g>
        </g>
        <g class="cls-28" pointer-events="none">
          <g class="cls-14">
            <g class="cls-14">
              <g class="cls-14">
                <text class="cls-9" transform="translate(3.2 211)"><tspan x="0" y="0">0</tspan></text>
              </g>
            </g>
            <g class="cls-14">
              <g class="cls-14">
                <text class="cls-4" transform="translate(3.2 211)"><tspan x="0" y="0">0</tspan></text>
              </g>
            </g>
          </g>
          <g class="cls-14">
            <g class="cls-14">
              <g class="cls-14">
                <text class="cls-7" transform="translate(3.2 211)"><tspan x="0" y="0">0</tspan></text>
              </g>
            </g>
          </g>
        </g>
      </g>
    </g>
    <g>
      <g class="cls-28" pointer-events="none">
        <g class="cls-14">
          <g class="cls-14">
            <g class="cls-14">
              <text class="cls-9" transform="translate(663.9 321.5)"><tspan x="0" y="0">0</tspan></text>
            </g>
          </g>
          <g class="cls-14">
            <g class="cls-14">
              <text class="cls-5" transform="translate(663.9 321.5)"><tspan x="0" y="0">0</tspan></text>
            </g>
          </g>
        </g>
        <g class="cls-14">
          <g class="cls-14">
            <g class="cls-14">
              <text class="cls-7" transform="translate(663.9 321.5)"><tspan x="0" y="0">0</tspan></text>
            </g>
          </g>
        </g>
      </g>
      <g pointer-events="none">
        <g class="cls-14">
          <g class="cls-14">
            <g class="cls-14">
              <text class="cls-9" transform="translate(604.4 211)"><tspan x="0" y="0">5775</tspan></text>
            </g>
          </g>
          <g class="cls-14">
            <g class="cls-14">
              <text class="cls-5" transform="translate(604.4 211)"><tspan x="0" y="0">5775</tspan></text>
            </g>
          </g>
        </g>
        <g class="cls-14">
          <g class="cls-14">
            <g class="cls-14">
              <text class="cls-7" transform="translate(604.4 211)"><tspan x="0" y="0">5775</tspan></text>
            </g>
          </g>
        </g>
      </g>
    </g>
    <g class="cls-26">
      <g>
        <g class="cls-28" pointer-events="none">
          <g class="cls-14">
            <g class="cls-14">
              <g class="cls-14">
                <text class="cls-9" transform="translate(663.9 321.5)"><tspan x="0" y="0">0</tspan></text>
              </g>
            </g>
            <g class="cls-14">
              <g class="cls-14">
                <text class="cls-2" transform="translate(663.9 321.5)"><tspan x="0" y="0">0</tspan></text>
              </g>
            </g>
          </g>
          <g class="cls-14">
            <g class="cls-14">
              <g class="cls-14">
                <text class="cls-7" transform="translate(663.9 321.5)"><tspan x="0" y="0">0</tspan></text>
              </g>
            </g>
          </g>
        </g>
        <g pointer-events="none">
          <g class="cls-14">
            <g class="cls-14">
              <g class="cls-14">
                <text class="cls-9" transform="translate(698.8 211)"><tspan x="0" y="0">791</tspan></text>
              </g>
            </g>
            <g class="cls-14">
              <g class="cls-14">
                <text class="cls-2" transform="translate(698.8 211)"><tspan x="0" y="0">791</tspan></text>
              </g>
            </g>
          </g>
          <g class="cls-14">
            <g class="cls-14">
              <g class="cls-14">
                <text class="cls-7" transform="translate(698.8 211)"><tspan x="0" y="0">791</tspan></text>
              </g>
            </g>
          </g>
        </g>
      </g>
    </g>
  </g>
  <g class="cls-14">
    <g class="cls-14">
      <g class="cls-14">
        <text class="cls-8" transform="translate(10.5 25.5)"><tspan x="0" y="0">Fusion Voting in NYC Council District 13</tspan></text>
      </g>
    </g>
  </g>
  <g class="cls-14">
    <g class="cls-14">
      <g class="cls-14">
        <text class="cls-10" transform="translate(10.5 52.4)"><tspan x="0" y="0">Kristy Marmorato won Republicans their first seat in the NYC City</tspan></text>
      </g>
    </g>
    <g class="cls-14">
      <g class="cls-14">
        <text class="cls-10" transform="translate(10.5 79.3)"><tspan x="0" y="0">Council in nearly 40 years after clutching a 791-vote lead along the</tspan></text>
      </g>
    </g>
    <g class="cls-14">
      <g class="cls-14">
        <text class="cls-10" transform="translate(10.5 106.1)"><tspan x="0" y="0">conservative part line.</tspan></text>
      </g>
    </g>
  </g>
  <g class="cls-14">
    <g class="cls-14">
      <g class="cls-14">
        <g class="cls-14">
          <text class="cls-15" transform="translate(575.6 273.9)"><tspan x="0" y="0">Democratic Vote</tspan></text>
        </g>
      </g>
    </g>
  </g>
  <g class="cls-14">
    <text class="cls-12" transform="translate(611.8 166)"><tspan x="0" y="0">Conservative Vote</tspan></text>
  </g>
  <text class="cls-21" transform="translate(5.6 416.3)"><tspan x="0" y="0">Chart: David Paiz-Torres | Data: BOE</tspan></text>
</svg>