<?xml version="1.0" encoding="UTF-8"?>
<svg id="Marmorato-Graph" xmlns="http://www.w3.org/2000/svg" xmlns:xlink="http://www.w3.org/1999/xlink" version="1.1" viewBox="0 0 722.7 423">
  <defs>
    <style>
      .cls-1, .cls-2, .cls-3, .cls-4, .cls-5, .cls-6, .cls-7 {
        fill: none;
      }

      .cls-1, .cls-7 {
        stroke: #eee;
        stroke-width: 1.5px;
      }

      .cls-2 {
        stroke: #c30101;
      }

      .cls-2, .cls-8, .cls-9, .cls-4, .cls-10, .cls-11, .cls-12, .cls-5, .cls-13, .cls-14, .cls-15, .cls-16, .cls-17 {
        isolation: isolate;
      }

      .cls-2, .cls-8, .cls-9, .cls-4, .cls-10, .cls-5, .cls-15 {
        font-family: Arial-BoldMT, Arial;
        font-weight: 700;
      }

      .cls-2, .cls-8, .cls-4, .cls-10, .cls-12, .cls-5, .cls-14, .cls-17 {
        font-size: 14px;
      }

      .cls-2, .cls-4, .cls-5 {
        stroke-width: 4.2px;
      }

      .cls-8 {
        fill: #fff;
      }

      .cls-9, .cls-11 {
        font-size: 22.4px;
      }

      .cls-9, .cls-11, .cls-17 {
        fill: #333;
      }

      .cls-18 {
        clip-path: url(#clippath);
      }

      .cls-3, .cls-19, .cls-20, .cls-6, .cls-21, .cls-22 {
        stroke-width: 0px;
      }

      .cls-4 {
        stroke: #04027e;
      }

      .cls-10, .cls-13, .cls-14, .cls-23, .cls-22, .cls-15 {
        fill: #000;
      }

      .cls-11, .cls-12, .cls-13, .cls-14, .cls-17 {
        font-family: ArialMT, Arial;
      }

      .cls-12 {
        fill: #4a4a4a;
      }

      .cls-5 {
        stroke: #6f0000;
      }

      .cls-19 {
        fill: #c30101;
      }

      .cls-24 {
        clip-path: url(#clippath-1);
      }

      .cls-25 {
        clip-path: url(#clippath-4);
      }

      .cls-26 {
        clip-path: url(#clippath-3);
      }

      .cls-27 {
        clip-path: url(#clippath-2);
      }

      .cls-28 {
        clip-path: url(#clippath-7);
      }

      .cls-29 {
        clip-path: url(#clippath-6);
      }

      .cls-13, .cls-23 {
        font-size: 12px;
      }

      .cls-20 {
        fill: #04027e;
      }

      .cls-6 {
        clip-path: url(#clippath-5);
      }

      .cls-21 {
        fill: #6f0000;
      }

      .cls-23 {
        font-family: MyriadPro-Regular, 'Myriad Pro';
      }

      .cls-22 {
        fill-opacity: 0;
      }

      .cls-7 {
        stroke-linecap: square;
      }

      .cls-15 {
        font-size: 12.6px;
      }

      .cls-30 {
        opacity: 0;
      }
    </style>
    <clipPath id="clippath">
      <polyline class="cls-3" points="770.4 143.1 770.4 367.1 8.4 360.5"/>
    </clipPath>
    <clipPath id="clippath-1">
      <polygon class="cls-3" points="10.4 144.1 768.4 144.1 768.4 365.1 9.4 358.5 10.4 144.1"/>
    </clipPath>
    <clipPath id="clippath-2">
      <polygon class="cls-3" points="10.4 144.1 768.4 144.1 768.4 365.1 9.4 358.5 10.4 144.1"/>
    </clipPath>
    <clipPath id="clippath-3">
      <polygon class="cls-3" points="10.4 144.1 768.4 144.1 768.4 365.1 9.4 358.5 10.4 144.1"/>
    </clipPath>
    <clipPath id="clippath-4">
      <polyline class="cls-3" points="9.4 358.5 10.4 144.1 768.4 144.1 768.4 365.1"/>
    </clipPath>
    <clipPath id="clippath-5">
      <line class="cls-3" x1="10.4" y1="144.1" x2="768.4" y2="144.1"/>
    </clipPath>
    <clipPath id="clippath-6">
      <path class="cls-6" d="M9.4,358.5"/>
    </clipPath>
    <clipPath id="clippath-7">
      <polyline class="cls-3" points="9.5 144.1 730.5 144.1 731.4 365.1 9.4 358.5"/>
    </clipPath>
  </defs>
  <g id="_Marmorato-Group_" data-name=" Marmorato-Group ">
    <path class="cls-3" d="M10.4,140.3l-1.1,218.2,731.1,6.6v-2.6c0-3.4,2.5-4.9,5.1-4.8.9-5.5,9.9-5.1,9.9,1v6.4h1.9c-.4-12-.8-24-.8-36.1s.4-2.2,1.1-3c-12.5-25-10.2-48.6-3.6-74.8,3.7-16.1,7.4-31.6,7.8-48.3.3-17.1-.6-34.2-.6-51.3s10-6.4,10,0c0,18.3,1.1,36.7.5,55-.5,16.6-4.5,32.4-8.3,48.4,2.3-3.7,9.3-2.8,9.3,2.6,0,28.3,2.5,56.4,5.9,84.3h1.8v-201.8H10.4v.2h0Z"/>
    <path class="cls-3" d="M10.4,140.3l-1.1,218.2,731.1,6.6v-2.6c0-3.4,2.5-4.9,5.1-4.8.9-5.5,9.9-5.1,9.9,1v6.4h1.9c-.4-12-.8-24-.8-36.1s.4-2.2,1.1-3c-12.5-25-10.2-48.6-3.6-74.8,3.7-16.1,7.4-31.6,7.8-48.3.3-17.1-.6-34.2-.6-51.3s10-6.4,10,0c0,18.3,1.1,36.7.5,55-.5,16.6-4.5,32.4-8.3,48.4,2.3-3.7,9.3-2.8,9.3,2.6,0,28.3,2.5,56.4,5.9,84.3h1.8v-201.8H10.4v.2h0Z"/>
    <g>
      <g>
        <g>
          <path class="cls-3" d="M10.4,144.3l-1.1,214.2,731.1,6.6v-2.6c0-3.4,2.5-4.9,5.1-4.8.9-5.5,9.9-5.1,9.9,1v6.4h1.3c-.4-12-.8-24-.8-36.1s.4-2.2,1.1-3c-12.5-25-10.2-48.4-3.6-74.6,3.7-16.1,7.4-31.6,7.8-48.2.3-17.1-.6-34.2-.6-51.2s4.8-5.8,7.8-4.1v-3.8H10.4v.2h0Z"/>
          <path class="cls-22" d="M10.4,144.4l-1.1,214.1,731.1,6.6v-2.6c0-3.4,2.5-4.9,5.1-4.8.9-5.5,9.9-5.1,9.9,1v6.4h1.6c-.4-12-.8-24-.8-36.1s.4-2.2,1.1-3c-12.5-25-10.2-48.5-3.6-74.7,3.7-16.1,7.4-31.6,7.8-48.3.3-17.1-.6-34.2-.6-51.3s4.8-5.8,7.8-4.1l-8.2-10.4"/>
        </g>
        <g class="cls-18">
          <g>
            <line class="cls-1" x1="9.4" y1="358.5" x2="10.4" y2="144.1"/>
            <path class="cls-1" d="M64.4,169.1"/>
            <path class="cls-1" d="M63.4,358.5"/>
            <path class="cls-1" d="M119.4,144.1"/>
            <path class="cls-1" d="M118.4,358.5"/>
            <path class="cls-1" d="M173.4,144.1"/>
            <path class="cls-1" d="M172.4,358.5"/>
            <path class="cls-1" d="M227.4,144.1"/>
            <path class="cls-1" d="M226.4,358.5"/>
            <path class="cls-1" d="M281.4,144.1"/>
            <path class="cls-1" d="M280.4,358.5"/>
            <path class="cls-1" d="M335.4,144.1"/>
            <path class="cls-1" d="M334.4,358.5"/>
            <path class="cls-1" d="M389.4,144.1"/>
            <path class="cls-1" d="M388.4,358.5"/>
            <path class="cls-1" d="M443.4,144.1"/>
            <path class="cls-1" d="M442.4,358.5"/>
            <path class="cls-1" d="M497.4,144.1"/>
            <path class="cls-1" d="M496.4,358.5"/>
            <path class="cls-1" d="M552.4,144.1"/>
            <path class="cls-1" d="M551.4,358.5"/>
            <path class="cls-1" d="M606.4,144.1"/>
            <path class="cls-1" d="M605.4,358.5"/>
            <path class="cls-1" d="M660.4,144.1"/>
            <path class="cls-1" d="M659.4,358.5"/>
            <path class="cls-1" d="M714.4,144.1"/>
            <path class="cls-1" d="M713.4,358.5"/>
          </g>
        </g>
        <g>
          <path class="cls-7" d="M9.6,358.9c234.9.2,468.5.2,703.4,0"/>
          <g>
            <g>
              <line class="cls-1" x1="9.4" y1="358.5" x2="9.4" y2="365.5"/>
              <g class="cls-16">
                <g class="cls-16">
                  <g class="cls-16">
                    <g class="cls-16">
                      <g class="cls-16">
                        <g class="cls-16">
                          <text class="cls-12" transform="translate(10.8 381.4) rotate(-45)"><tspan x="0" y="0">0</tspan></text>
                        </g>
                      </g>
                    </g>
                  </g>
                </g>
              </g>
            </g>
            <g>
              <line class="cls-1" x1="659.4" y1="358.5" x2="659.4" y2="365.5"/>
              <g class="cls-16">
                <g class="cls-16">
                  <g class="cls-16">
                    <g class="cls-16">
                      <g class="cls-16">
                        <g class="cls-16">
                          <text class="cls-12" transform="translate(643.8 398) rotate(-45)"><tspan x="0" y="0">6000</tspan></text>
                        </g>
                      </g>
                    </g>
                  </g>
                </g>
              </g>
            </g>
            <g>
              <line class="cls-1" x1="551.4" y1="358.5" x2="551.4" y2="365.5"/>
              <g class="cls-16">
                <g class="cls-16">
                  <g class="cls-16">
                    <g class="cls-16">
                      <g class="cls-16">
                        <g class="cls-16">
                          <text class="cls-12" transform="translate(535.5 398) rotate(-45)"><tspan x="0" y="0">5000</tspan></text>
                        </g>
                      </g>
                    </g>
                  </g>
                </g>
              </g>
            </g>
            <g>
              <line class="cls-1" x1="442.4" y1="358.5" x2="442.4" y2="365.5"/>
              <g class="cls-16">
                <g class="cls-16">
                  <g class="cls-16">
                    <g class="cls-16">
                      <g class="cls-16">
                        <g class="cls-16">
                          <text class="cls-12" transform="translate(427.3 398) rotate(-45)"><tspan x="0" y="0">4000</tspan></text>
                        </g>
                      </g>
                    </g>
                  </g>
                </g>
              </g>
            </g>
            <g>
              <line class="cls-1" x1="334.4" y1="358.5" x2="334.4" y2="365.5"/>
              <g class="cls-16">
                <g class="cls-16">
                  <g class="cls-16">
                    <g class="cls-16">
                      <g class="cls-16">
                        <g class="cls-16">
                          <text class="cls-12" transform="translate(319 398) rotate(-45)"><tspan x="0" y="0">3000</tspan></text>
                        </g>
                      </g>
                    </g>
                  </g>
                </g>
              </g>
            </g>
            <g>
              <line class="cls-1" x1="226.4" y1="358.5" x2="226.4" y2="365.5"/>
              <g class="cls-16">
                <g class="cls-16">
                  <g class="cls-16">
                    <g class="cls-16">
                      <g class="cls-16">
                        <g class="cls-16">
                          <text class="cls-12" transform="translate(210.8 398) rotate(-45)"><tspan x="0" y="0">2000</tspan></text>
                        </g>
                      </g>
                    </g>
                  </g>
                </g>
              </g>
            </g>
            <g>
              <line class="cls-1" x1="118.4" y1="358.5" x2="118.4" y2="365.5"/>
              <g class="cls-16">
                <g class="cls-16">
                  <g class="cls-16">
                    <g class="cls-16">
                      <g class="cls-16">
                        <g class="cls-16">
                          <text class="cls-12" transform="translate(102.5 398) rotate(-45)"><tspan x="0" y="0">1000</tspan></text>
                        </g>
                      </g>
                    </g>
                  </g>
                </g>
              </g>
            </g>
            <g>
              <line class="cls-1" x1="63.4" y1="358.5" x2="63.4" y2="365.5"/>
              <g class="cls-16">
                <g class="cls-16">
                  <g class="cls-16">
                    <g class="cls-16">
                      <g class="cls-16">
                        <g class="cls-16">
                          <text class="cls-12" transform="translate(53.9 392.5) rotate(-45)"><tspan x="0" y="0">500</tspan></text>
                        </g>
                      </g>
                    </g>
                  </g>
                </g>
              </g>
            </g>
            <g>
              <line class="cls-1" x1="713.4" y1="358.5" x2="713.4" y2="365.5"/>
              <g class="cls-16">
                <g class="cls-16">
                  <g class="cls-16">
                    <g class="cls-16">
                      <g class="cls-16">
                        <g class="cls-16">
                          <text class="cls-12" transform="translate(697.9 398) rotate(-45)"><tspan x="0" y="0">6500</tspan></text>
                        </g>
                      </g>
                    </g>
                  </g>
                </g>
              </g>
            </g>
            <g>
              <line class="cls-1" x1="605.4" y1="358.5" x2="605.4" y2="365.5"/>
              <g class="cls-16">
                <g class="cls-16">
                  <g class="cls-16">
                    <g class="cls-16">
                      <g class="cls-16">
                        <g class="cls-16">
                          <text class="cls-12" transform="translate(589.7 398) rotate(-45)"><tspan x="0" y="0">5500</tspan></text>
                        </g>
                      </g>
                    </g>
                  </g>
                </g>
              </g>
            </g>
            <g>
              <line class="cls-1" x1="496.4" y1="358.5" x2="496.4" y2="365.5"/>
              <g class="cls-16">
                <g class="cls-16">
                  <g class="cls-16">
                    <g class="cls-16">
                      <g class="cls-16">
                        <g class="cls-16">
                          <text class="cls-12" transform="translate(481.4 398) rotate(-45)"><tspan x="0" y="0">4500</tspan></text>
                        </g>
                      </g>
                    </g>
                  </g>
                </g>
              </g>
            </g>
            <g>
              <line class="cls-1" x1="388.4" y1="358.5" x2="388.4" y2="365.5"/>
              <g class="cls-16">
                <g class="cls-16">
                  <g class="cls-16">
                    <g class="cls-16">
                      <g class="cls-16">
                        <g class="cls-16">
                          <text class="cls-12" transform="translate(373.1 398) rotate(-45)"><tspan x="0" y="0">3500</tspan></text>
                        </g>
                      </g>
                    </g>
                  </g>
                </g>
              </g>
            </g>
            <g>
              <line class="cls-1" x1="280.4" y1="358.5" x2="280.4" y2="365.5"/>
              <g class="cls-16">
                <g class="cls-16">
                  <g class="cls-16">
                    <g class="cls-16">
                      <g class="cls-16">
                        <g class="cls-16">
                          <text class="cls-12" transform="translate(264.9 398) rotate(-45)"><tspan x="0" y="0">2500</tspan></text>
                        </g>
                      </g>
                    </g>
                  </g>
                </g>
              </g>
            </g>
            <g>
              <line class="cls-1" x1="172.4" y1="358.5" x2="172.4" y2="365.5"/>
              <g class="cls-16">
                <g class="cls-16">
                  <g class="cls-16">
                    <g class="cls-16">
                      <g class="cls-16">
                        <g class="cls-16">
                          <text class="cls-12" transform="translate(156.6 398) rotate(-45)"><tspan x="0" y="0">1500</tspan></text>
                        </g>
                      </g>
                    </g>
                  </g>
                </g>
              </g>
            </g>
          </g>
        </g>
      </g>
      <g class="cls-24">
        <g class="cls-16">
          <g class="cls-16">
            <g class="cls-16">
              <g class="cls-16">
                <g class="cls-16">
                  <text class="cls-15" transform="translate(10.6 277.7)"><tspan x="0" y="0">MARJORIE VELAZQUEZ</tspan></text>
                </g>
              </g>
            </g>
          </g>
        </g>
      </g>
      <g class="cls-27">
        <g class="cls-16">
          <g class="cls-16">
            <g class="cls-16">
              <g class="cls-16">
                <g class="cls-16">
                  <text class="cls-15" transform="translate(10.6 167.2)"><tspan x="0" y="0">KRISTY MARMORATO</tspan></text>
                </g>
              </g>
            </g>
          </g>
        </g>
      </g>
    </g>
    <g class="cls-26">
      <path id="point-0-0" class="cls-20" d="M10.4,281.1h661v73H10.4v-73Z"/>
    </g>
    <g class="cls-25">
      <path id="point-1-1" class="cls-19" d="M10.4,171.1h625v73H10.4v-73Z"/>
    </g>
    <path id="point-2-1" class="cls-21" d="M635.4,171.1h85v73h-85v-73Z"/>
    <g class="cls-29">
      <g>
        <g pointer-events="none">
          <g class="cls-16">
            <g class="cls-16">
              <g class="cls-16">
                <g class="cls-16">
                  <g class="cls-16">
                    <g class="cls-16">
                      <text class="cls-10" transform="translate(634.7 322.4)"><tspan x="0" y="0">6103</tspan></text>
                    </g>
                  </g>
                </g>
              </g>
            </g>
            <g class="cls-16">
              <g class="cls-16">
                <g class="cls-16">
                  <g class="cls-16">
                    <g class="cls-16">
                      <text class="cls-4" transform="translate(634.7 322.4)"><tspan x="0" y="0">6103</tspan></text>
                    </g>
                  </g>
                </g>
              </g>
            </g>
          </g>
          <g class="cls-16">
            <g class="cls-16">
              <g class="cls-16">
                <g class="cls-16">
                  <g class="cls-16">
                    <g class="cls-16">
                      <text class="cls-8" transform="translate(634.7 322.4)"><tspan x="0" y="0">6103</tspan></text>
                    </g>
                  </g>
                </g>
              </g>
            </g>
          </g>
        </g>
        <g class="cls-30" pointer-events="none">
          <g class="cls-16">
            <g class="cls-16">
              <g class="cls-16">
                <g class="cls-16">
                  <g class="cls-16">
                    <g class="cls-16">
                      <text class="cls-10" transform="translate(-2.4 211.9)"><tspan x="0" y="0">0</tspan></text>
                    </g>
                  </g>
                </g>
              </g>
            </g>
            <g class="cls-16">
              <g class="cls-16">
                <g class="cls-16">
                  <g class="cls-16">
                    <g class="cls-16">
                      <text class="cls-4" transform="translate(-2.4 211.9)"><tspan x="0" y="0">0</tspan></text>
                    </g>
                  </g>
                </g>
              </g>
            </g>
          </g>
          <g class="cls-16">
            <g class="cls-16">
              <g class="cls-16">
                <g class="cls-16">
                  <g class="cls-16">
                    <g class="cls-16">
                      <text class="cls-8" transform="translate(-2.4 211.9)"><tspan x="0" y="0">0</tspan></text>
                    </g>
                  </g>
                </g>
              </g>
            </g>
          </g>
        </g>
      </g>
    </g>
    <g>
      <g class="cls-30" pointer-events="none">
        <g class="cls-16">
          <g class="cls-16">
            <g class="cls-16">
              <g class="cls-16">
                <g class="cls-16">
                  <g class="cls-16">
                    <text class="cls-10" transform="translate(658.3 322.4)"><tspan x="0" y="0">0</tspan></text>
                  </g>
                </g>
              </g>
            </g>
          </g>
          <g class="cls-16">
            <g class="cls-16">
              <g class="cls-16">
                <g class="cls-16">
                  <g class="cls-16">
                    <text class="cls-5" transform="translate(658.3 322.4)"><tspan x="0" y="0">0</tspan></text>
                  </g>
                </g>
              </g>
            </g>
          </g>
        </g>
        <g class="cls-16">
          <g class="cls-16">
            <g class="cls-16">
              <g class="cls-16">
                <g class="cls-16">
                  <g class="cls-16">
                    <text class="cls-8" transform="translate(658.3 322.4)"><tspan x="0" y="0">0</tspan></text>
                  </g>
                </g>
              </g>
            </g>
          </g>
        </g>
      </g>
      <g pointer-events="none">
        <g class="cls-16">
          <g class="cls-16">
            <g class="cls-16">
              <g class="cls-16">
                <g class="cls-16">
                  <g class="cls-16">
                    <text class="cls-10" transform="translate(598.8 211.9)"><tspan x="0" y="0">5775</tspan></text>
                  </g>
                </g>
              </g>
            </g>
          </g>
        </g>
        <g class="cls-16">
          <g class="cls-16">
            <g class="cls-16">
              <g class="cls-16">
                <g class="cls-16">
                  <g class="cls-16">
                    <text class="cls-8" transform="translate(598.3 211.9)"><tspan x="0" y="0">5775</tspan></text>
                  </g>
                </g>
              </g>
            </g>
          </g>
        </g>
      </g>
    </g>
    <g class="cls-28">
      <g>
        <g class="cls-30" pointer-events="none">
          <g class="cls-16">
            <g class="cls-16">
              <g class="cls-16">
                <g class="cls-16">
                  <g class="cls-16">
                    <g class="cls-16">
                      <text class="cls-10" transform="translate(658.3 322.4)"><tspan x="0" y="0">0</tspan></text>
                    </g>
                  </g>
                </g>
              </g>
            </g>
            <g class="cls-16">
              <g class="cls-16">
                <g class="cls-16">
                  <g class="cls-16">
                    <g class="cls-16">
                      <text class="cls-2" transform="translate(658.3 322.4)"><tspan x="0" y="0">0</tspan></text>
                    </g>
                  </g>
                </g>
              </g>
            </g>
          </g>
          <g class="cls-16">
            <g class="cls-16">
              <g class="cls-16">
                <g class="cls-16">
                  <g class="cls-16">
                    <g class="cls-16">
                      <text class="cls-8" transform="translate(658.3 322.4)"><tspan x="0" y="0">0</tspan></text>
                    </g>
                  </g>
                </g>
              </g>
            </g>
          </g>
        </g>
        <g pointer-events="none">
          <g class="cls-16">
            <g class="cls-16">
              <g class="cls-16">
                <g class="cls-16">
                  <g class="cls-16">
                    <g class="cls-16">
                      <text class="cls-10" transform="translate(693.2 211.9)"><tspan x="0" y="0">791</tspan></text>
                    </g>
                  </g>
                </g>
              </g>
            </g>
          </g>
          <g class="cls-16">
            <g class="cls-16">
              <g class="cls-16">
                <g class="cls-16">
                  <g class="cls-16">
                    <g class="cls-16">
                      <text class="cls-8" transform="translate(692.4 212)"><tspan x="0" y="0">791</tspan></text>
                    </g>
                  </g>
                </g>
              </g>
            </g>
          </g>
        </g>
      </g>
    </g>
    <g class="cls-16">
      <g class="cls-16">
        <g class="cls-16">
          <g class="cls-16">
            <g class="cls-16">
              <text class="cls-9" transform="translate(4.9 26.4)"><tspan x="0" y="0">Fusion Voting in NYC Council District 13</tspan></text>
            </g>
          </g>
        </g>
      </g>
    </g>
    <g class="cls-16">
      <g class="cls-16">
        <g class="cls-16">
          <g class="cls-16">
            <g class="cls-16">
              <text class="cls-11" transform="translate(4.9 53.3)"><tspan x="0" y="0">Kristy Marmorato won Republicans their first seat in the NYC City</tspan></text>
            </g>
          </g>
        </g>
      </g>
    </g>
    <g class="cls-16">
      <g class="cls-16">
        <g class="cls-16">
          <g class="cls-16">
            <g class="cls-16">
              <text class="cls-11" transform="translate(4.9 80.2)"><tspan x="0" y="0">Council in nearly 40 years after clutching a 791-vote lead along the</tspan></text>
            </g>
          </g>
        </g>
      </g>
    </g>
    <g class="cls-16">
      <g class="cls-16">
        <g class="cls-16">
          <g class="cls-16">
            <g class="cls-16">
              <text class="cls-11" transform="translate(4.9 107)"><tspan x="0" y="0">conservative part line.</tspan></text>
            </g>
          </g>
        </g>
      </g>
    </g>
    <g class="cls-16">
      <g class="cls-16">
        <g class="cls-16">
          <g class="cls-16">
            <g class="cls-16">
              <g class="cls-16">
                <text class="cls-17" transform="translate(570 274.8)"><tspan x="0" y="0">Democratic Vote</tspan></text>
              </g>
            </g>
          </g>
        </g>
      </g>
    </g>
    <g class="cls-16">
      <g class="cls-16">
        <g class="cls-16">
          <text class="cls-14" transform="translate(606.2 166.9)"><tspan x="0" y="0">Conservative Vote</tspan></text>
        </g>
      </g>
    </g>
    <g class="cls-16">
      <g class="cls-16">
        <text class="cls-13" transform="translate(521.8 418.5)"><tspan x="0" y="0">Chart: David Paiz-Torres | Data: BOE</tspan></text>
      </g>
    </g>
    <g class="cls-16">
      <text class="cls-8" transform="translate(599.5 320.9)"><tspan x="0" y="0">6103</tspan></text>
    </g>
  </g>
  <text class="cls-23" transform="translate(2.2 420)"><tspan x="0" y="0">Vote Count for 2023 Election in New York City’s 13th City Council District</tspan></text>
</svg>